<svg width="20" height="20" viewBox="0 0 20 20" fill="none" xmlns="http://www.w3.org/2000/svg">
<path d="M18.7633 10.509C19.157 9.98869 19.375 9.35119 19.375 8.68791C19.375 7.63556 18.7867 6.63947 17.8398 6.084C17.5961 5.94102 17.3185 5.86577 17.0359 5.86603H11.4156L11.5563 2.98556C11.5891 2.28947 11.343 1.62853 10.8648 1.12463C10.6302 0.876255 10.3471 0.678642 10.0331 0.543998C9.71905 0.409355 9.38074 0.340543 9.03906 0.341814C7.82031 0.341814 6.74219 1.16213 6.41875 2.33635L4.40547 9.62541H4.39844V19.6567H15.468C15.6836 19.6567 15.8945 19.6145 16.0891 19.5301C17.2047 19.0543 17.9242 17.9645 17.9242 16.7551C17.9242 16.4598 17.882 16.1692 17.7977 15.8879C18.1914 15.3676 18.4094 14.7301 18.4094 14.0668C18.4094 13.7715 18.3672 13.4809 18.2828 13.1996C18.6766 12.6793 18.8945 12.0418 18.8945 11.3785C18.8898 11.0832 18.8477 10.7903 18.7633 10.509ZM0.625 10.3754V18.9067C0.625 19.3215 0.960156 19.6567 1.375 19.6567H2.89844V9.62541H1.375C0.960156 9.62541 0.625 9.96056 0.625 10.3754Z" fill="#3182CE"/>
</svg>
